<?xml version="1.0" encoding="utf-8"?>
<svg width="20.875px" height="18.615225px" viewBox="0 0 20.875 18.615225" version="1.1" xmlns:xlink="http://www.w3.org/1999/xlink" xmlns="http://www.w3.org/2000/svg">
  <g id="jsx_13_gray_20x20" transform="translate(0.4375 0.4375)">
    <g id="jsx_13_gray_20x20_dark" transform="translate(0 -3.874302E-07)">
      <g id="jsx_13_gray_20x20">
        <g id="Group">
          <g id="jsx_13_gray">
            <path d="M8.13584 8.8701C8.13584 7.84054 8.97046 7.00593 10 7.00593C11.0296 7.00593 11.8642 7.84054 11.8642 8.8701C11.8642 9.89966 11.0296 10.7343 10 10.7343C8.97046 10.7343 8.13584 9.89966 8.13584 8.8701L8.13584 8.8701L8.13584 8.8701Z" id="Circle" fill="#6C707E" fill-rule="evenodd" stroke="none" />
            <path d="M0 8.8701C0 6.76128 4.47717 5.05174 10 5.05174C15.5229 5.05174 20 6.76128 20 8.8701C20 10.9789 15.5229 12.6884 10 12.6884C4.47717 12.6884 0 10.9789 0 8.8701L0 8.8701L0 8.8701ZM5.00001 0.209831C6.82631 -0.84458 10.5454 2.17798 13.3068 6.96091C16.0683 11.7439 16.8264 16.4759 15 17.5304C13.1737 18.5848 9.45464 15.5622 6.69322 10.7793C3.93179 5.99634 3.17372 1.26424 5.00001 0.209831L5.00001 0.209831L5.00001 0.209831ZM15 0.209831C16.8264 1.26424 16.0683 5.99634 13.3068 10.7793C10.5454 15.5622 6.82631 18.5848 5.00001 17.5304C3.17372 16.4759 3.93179 11.7439 6.69322 6.96091C9.45465 2.17798 13.1737 -0.84458 15 0.209831L15 0.209831L15 0.209831Z" id="Group#1" fill="none" fill-rule="evenodd" stroke="#6C707E" stroke-width="0.875" />
          </g>
        </g>
      </g>
    </g>
  </g>
</svg>